<svg xmlns="http://www.w3.org/2000/svg" viewBox="0 0 400 300" fill="none">
  <!-- Conference room background -->
  <rect width="400" height="300" fill="#1a1a2e"/>
  
  <!-- Floor -->
  <rect x="0" y="250" width="400" height="50" fill="#16213e"/>
  
  <!-- Presentation board -->
  <rect x="50" y="50" width="180" height="120" fill="#ffffff" stroke="#333" stroke-width="3" rx="5"/>
  
  <!-- Chart on board -->
  <g stroke="#F97316" stroke-width="3" fill="none">
    <polyline points="70,140 100,120 130,100 160,80 190,60" stroke-linecap="round"/>
    <!-- Chart bars -->
    <rect x="75" y="130" width="8" height="20" fill="#F97316" opacity="0.7"/>
    <rect x="95" y="120" width="8" height="30" fill="#F97316" opacity="0.7"/>
    <rect x="115" y="110" width="8" height="40" fill="#F97316" opacity="0.7"/>
    <rect x="135" y="100" width="8" height="50" fill="#F97316" opacity="0.7"/>
    <rect x="155" y="90" width="8" height="60" fill="#F97316" opacity="0.7"/>
    <rect x="175" y="80" width="8" height="70" fill="#F97316" opacity="0.7"/>
  </g>
  
  <!-- Business person -->
  <g id="presenter">
    <!-- Body (suit) -->
    <ellipse cx="280" cy="200" rx="25" ry="45" fill="#2c3e50"/>
    <!-- Shirt -->
    <ellipse cx="280" cy="185" rx="18" ry="30" fill="#ffffff"/>
    <!-- Tie -->
    <rect x="275" y="170" width="10" height="25" fill="#F97316" rx="2"/>
    
    <!-- Head -->
    <circle cx="280" cy="140" r="20" fill="#fdbcb4"/>
    
    <!-- Hair -->
    <path d="M260 130 Q280 115 300 130 Q295 125 280 125 Q265 125 260 130" fill="#8b4513"/>
    
    <!-- Eyes -->
    <circle cx="275" cy="138" r="2" fill="#000"/>
    <circle cx="285" cy="138" r="2" fill="#000"/>
    
    <!-- Mouth -->
    <path d="M275 145 Q280 148 285 145" stroke="#000" stroke-width="1" fill="none"/>
    
    <!-- Left arm (pointing) -->
    <line x1="255" y1="180" x2="200" y2="100" stroke="#fdbcb4" stroke-width="8" stroke-linecap="round"/>
    <!-- Left hand -->
    <circle cx="200" cy="100" r="6" fill="#fdbcb4"/>
    
    <!-- Right arm -->
    <line x1="305" y1="180" x2="320" y2="200" stroke="#fdbcb4" stroke-width="8" stroke-linecap="round"/>
    <!-- Right hand -->
    <circle cx="320" cy="200" r="6" fill="#fdbcb4"/>
    
    <!-- Legs -->
    <line x1="270" y1="245" x2="270" y2="280" stroke="#2c3e50" stroke-width="12" stroke-linecap="round"/>
    <line x1="290" y1="245" x2="290" y2="280" stroke="#2c3e50" stroke-width="12" stroke-linecap="round"/>
    
    <!-- Shoes -->
    <ellipse cx="270" cy="285" rx="8" ry="4" fill="#000"/>
    <ellipse cx="290" cy="285" rx="8" ry="4" fill="#000"/>
  </g>
  
  <!-- Pointer stick -->
  <line x1="200" y1="100" x2="180" y2="90" stroke="#8b4513" stroke-width="3" stroke-linecap="round"/>
  
  <!-- Conference table -->
  <ellipse cx="350" cy="220" rx="40" ry="15" fill="#8b4513"/>
  <rect x="310" y="205" width="80" height="15" fill="#8b4513"/>
  
  <!-- Audience silhouettes -->
  <g opacity="0.6">
    <!-- Person 1 -->
    <circle cx="330" cy="190" r="8" fill="#2c3e50"/>
    <rect x="325" y="195" width="10" height="15" fill="#2c3e50" rx="2"/>
    
    <!-- Person 2 -->
    <circle cx="350" cy="190" r="8" fill="#2c3e50"/>
    <rect x="345" y="195" width="10" height="15" fill="#2c3e50" rx="2"/>
    
    <!-- Person 3 -->
    <circle cx="370" cy="190" r="8" fill="#2c3e50"/>
    <rect x="365" y="195" width="10" height="15" fill="#2c3e50" rx="2"/>
  </g>
  
  <!-- Animated elements -->
  <style>
    #presenter {
      animation: subtle-movement 3s ease-in-out infinite;
    }
    
    @keyframes subtle-movement {
      0%, 100% { transform: translateY(0px); }
      50% { transform: translateY(-2px); }
    }
    
    .chart-line {
      animation: draw-line 2s ease-in-out infinite;
    }
    
    @keyframes draw-line {
      0% { stroke-dasharray: 0 200; }
      50% { stroke-dasharray: 100 200; }
      100% { stroke-dasharray: 200 200; }
    }
  </style>
  
  <!-- Success indicators -->
  <g opacity="0.8">
    <circle cx="320" cy="80" r="3" fill="#10b981">
      <animate attributeName="opacity" values="0;1;0" dur="2s" repeatCount="indefinite"/>
    </circle>
    <circle cx="340" cy="70" r="2" fill="#10b981">
      <animate attributeName="opacity" values="0;1;0" dur="2.5s" repeatCount="indefinite"/>
    </circle>
    <circle cx="360" cy="85" r="2.5" fill="#10b981">
      <animate attributeName="opacity" values="0;1;0" dur="3s" repeatCount="indefinite"/>
    </circle>
  </g>
</svg>